<?xml version="1.0" encoding="UTF-8"?>
<svg id="Layer_2" data-name="Layer 2" xmlns="http://www.w3.org/2000/svg" xmlns:xlink="http://www.w3.org/1999/xlink" viewBox="0 0 236.18 27.73">
  <defs>
    <style>
      .cls-1 {
        fill: #12bd7e;
      }

      .cls-2 {
        fill: #fff;
      }

      .cls-3 {
        mask: url(#mask);
      }
    </style>
    <mask id="mask" x="-.16" y="-.16" width="46.94" height="28.04" maskUnits="userSpaceOnUse">
      <g id="mask0_0_3" data-name="mask0 0 3">
        <rect class="cls-2" x="-.16" y="-.16" width="46.94" height="28.04"/>
      </g>
    </mask>
  </defs>
  <g id="_레이어_1" data-name="레이어 1">
    <g>
      <path class="cls-1" d="m58.58,22.48c0,1.36,1.08,2.44,2.44,2.44h11.48c1.24,0,2.22-.98,2.22-2.22s-.98-2.22-2.22-2.22h-9.04V4.97c0-1.36-1.08-2.44-2.44-2.44s-2.44,1.08-2.44,2.44v17.51Z"/>
      <path class="cls-1" d="m85.39,25.27c5.96,0,9.74-3.3,9.74-10.02V4.97c0-1.36-1.08-2.44-2.44-2.44s-2.44,1.08-2.44,2.44v10.47c0,3.52-1.81,5.33-4.79,5.33s-4.79-1.87-4.79-5.49V4.97c0-1.36-1.08-2.44-2.44-2.44s-2.44,1.08-2.44,2.44v10.44c0,6.54,3.65,9.87,9.61,9.87Z"/>
      <path class="cls-1" d="m98.63,22.48c0,1.36,1.08,2.44,2.44,2.44h11.48c1.24,0,2.22-.98,2.22-2.22s-.98-2.22-2.22-2.22h-9.04V4.97c0-1.36-1.08-2.44-2.44-2.44s-2.44,1.08-2.44,2.44v17.51Z"/>
      <path class="cls-1" d="m125.44,25.27c5.96,0,9.74-3.3,9.74-10.02V4.97c0-1.36-1.08-2.44-2.44-2.44s-2.44,1.08-2.44,2.44v10.47c0,3.52-1.81,5.33-4.79,5.33s-4.79-1.87-4.79-5.49V4.97c0-1.36-1.08-2.44-2.44-2.44s-2.44,1.08-2.44,2.44v10.44c0,6.54,3.65,9.87,9.61,9.87Z"/>
      <path class="cls-1" d="m138.68,22.73c0,1.33,1.05,2.38,2.38,2.38s2.41-1.05,2.41-2.38v-11.04l4.22,6.5c.51.76,1.14,1.24,2.03,1.24s1.52-.48,2.03-1.24l4.28-6.6v11.07c0,1.33,1.08,2.44,2.41,2.44s2.44-1.08,2.44-2.44V5.03c0-1.36-1.08-2.44-2.44-2.44h-.54c-.98,0-1.68.41-2.19,1.24l-5.93,9.64-5.9-9.61c-.44-.73-1.17-1.27-2.22-1.27h-.54c-1.36,0-2.44,1.08-2.44,2.44v17.7Z"/>
      <path class="cls-1" d="m167.19,24.92h12.47c1.21,0,2.19-.95,2.19-2.16s-.98-2.19-2.19-2.19h-10.06v-4.66h8.47c1.21,0,2.19-.95,2.19-2.16s-.98-2.19-2.19-2.19h-8.47v-4.51h9.9c1.21,0,2.19-.95,2.19-2.16s-.98-2.19-2.19-2.19h-12.31c-1.36,0-2.44,1.08-2.44,2.44v17.32c0,1.36,1.08,2.44,2.44,2.44Z"/>
      <path class="cls-1" d="m184.52,22.48c0,1.36,1.08,2.44,2.44,2.44h6.22c6.98,0,11.8-4.85,11.8-11.1v-.06c0-6.25-4.82-11.04-11.8-11.04h-6.22c-1.37,0-2.44,1.08-2.44,2.44v17.32Zm4.89-1.97V7.13h3.78c4,0,6.69,2.76,6.69,6.69v.06c0,3.93-2.7,6.63-6.69,6.63h-3.78Z"/>
      <path class="cls-1" d="m208.09,22.67c0,1.36,1.08,2.44,2.44,2.44s2.44-1.08,2.44-2.44V4.97c0-1.36-1.08-2.44-2.44-2.44s-2.44,1.08-2.44,2.44v17.7Z"/>
      <path class="cls-1" d="m227.45,25.3c3.55,0,5.9-1.05,7.9-2.79.44-.38.82-.98.82-1.74,0-1.24-1.05-2.25-2.28-2.25-.57,0-1.08.22-1.46.54-1.4,1.11-2.76,1.74-4.82,1.74-3.81,0-6.44-3.17-6.44-6.98v-.06c0-3.81,2.7-6.92,6.44-6.92,1.75,0,3.17.57,4.54,1.59.35.22.79.48,1.46.48,1.33,0,2.41-1.05,2.41-2.38,0-.86-.44-1.55-.95-1.94-1.84-1.36-4.09-2.25-7.42-2.25-6.82,0-11.58,5.17-11.58,11.48v.06c0,6.38,4.85,11.42,11.39,11.42Z"/>
      <g class="cls-3">
        <g>
          <path class="cls-1" d="m40.37,15.21c3.46,0,6.26,2.8,6.26,6.26s-2.8,6.26-6.26,6.26-6.26-2.8-6.26-6.26,2.8-6.26,6.26-6.26Z"/>
          <path class="cls-1" d="m35.17.84h0c2.99,1.73,4.02,5.56,2.29,8.55l-8.76,15.18c-1.73,2.99-5.56,4.02-8.55,2.29h0c-2.99-1.73-4.02-5.56-2.29-8.55L26.62,3.13c1.73-2.99,5.56-4.02,8.55-2.29Z"/>
          <path class="cls-1" d="m18.15.84h0c2.99,1.73,4.02,5.56,2.29,8.55l-8.76,15.18c-1.73,2.99-5.56,4.02-8.55,2.29h0C.14,25.13-.89,21.3.84,18.31L9.6,3.13C11.33.14,15.16-.89,18.15.84Z"/>
        </g>
      </g>
    </g>
  </g>
</svg>